<svg width="285" height="229" viewBox="0 0 285 229" fill="none" xmlns="http://www.w3.org/2000/svg">
<path d="M25.6579 206.72C26.5609 199.481 31.0611 192.349 37.9862 189.993C35.2552 197.444 35.2557 205.617 37.9879 213.068C39.052 215.937 40.5353 219.018 39.5344 221.91C38.9116 223.71 37.388 225.087 35.685 225.948C33.9819 226.808 32.0918 227.219 30.2253 227.621L29.858 227.924C26.895 221.254 24.7548 213.959 25.6579 206.72Z" fill="#F0F0F0"/>
<path d="M38.0549 190.13C34.0221 194.634 31.5155 200.291 30.8913 206.297C30.7339 207.588 30.7816 208.895 31.0325 210.17C31.3172 211.405 31.9284 212.542 32.8026 213.461C33.6005 214.335 34.5181 215.137 35.0889 216.189C35.3731 216.732 35.539 217.328 35.5757 217.94C35.6124 218.551 35.5191 219.163 35.3018 219.736C34.7978 221.177 33.8045 222.351 32.793 223.466C31.6699 224.704 30.4837 225.973 30.0063 227.614C29.9485 227.813 29.6423 227.712 29.7001 227.513C30.5307 224.658 33.3113 223.035 34.6374 220.463C35.2562 219.263 35.5159 217.87 34.9358 216.603C34.4285 215.495 33.483 214.668 32.6675 213.79C31.8015 212.905 31.1659 211.822 30.8164 210.636C30.5011 209.378 30.4031 208.074 30.5264 206.783C30.7575 203.87 31.4465 201.012 32.5682 198.313C33.8312 195.226 35.6147 192.376 37.8416 189.889C37.9795 189.735 38.1919 189.977 38.055 190.13H38.0549Z" fill="white"/>
<path d="M30.9781 204.352C29.9816 204.11 29.1035 203.524 28.5007 202.697C27.8979 201.87 27.6095 200.856 27.6872 199.837C27.7037 199.63 28.0259 199.646 28.0094 199.853C27.9353 200.802 28.204 201.746 28.7669 202.515C29.3298 203.284 30.15 203.827 31.0793 204.046C31.2812 204.094 31.1789 204.399 30.9781 204.352Z" fill="white"/>
<path d="M32.3396 213.071C34.1394 212 35.4681 210.292 36.0607 208.287C36.1192 208.089 36.4254 208.19 36.3669 208.388C35.7464 210.473 34.3601 212.248 32.4846 213.359C32.3058 213.464 32.1617 213.177 32.3396 213.071H32.3396Z" fill="white"/>
<path d="M34.1304 195.53C34.4965 195.704 34.9 195.784 35.3048 195.763C35.7096 195.743 36.103 195.622 36.4495 195.413C36.6269 195.305 36.7708 195.593 36.5946 195.7C36.2106 195.93 35.776 196.062 35.3288 196.086C34.8817 196.109 34.4355 196.024 34.0293 195.836C33.9895 195.821 33.9568 195.792 33.9377 195.754C33.9187 195.717 33.9147 195.673 33.9267 195.633C33.9403 195.592 33.9693 195.559 34.0075 195.54C34.0456 195.521 34.0898 195.517 34.1304 195.53Z" fill="white"/>
<path d="M59.0951 202.922C58.9863 202.993 58.8774 203.063 58.7684 203.137C57.31 204.093 55.9319 205.165 54.6477 206.344C54.5469 206.433 54.4462 206.526 54.3482 206.618C51.2847 209.49 48.7826 212.904 46.9694 216.687C46.2492 218.193 45.645 219.752 45.162 221.349C44.4951 223.555 43.9481 226 42.628 227.804C42.4924 227.994 42.3451 228.175 42.187 228.347H30.2571C30.23 228.333 30.2028 228.322 30.1755 228.309L29.6992 228.331C29.7184 228.246 29.74 228.16 29.7592 228.075C29.7701 228.027 29.7836 227.978 29.7945 227.929C29.8026 227.896 29.8109 227.864 29.8163 227.834C29.819 227.823 29.8218 227.812 29.8244 227.804C29.8299 227.774 29.8381 227.747 29.8436 227.72C29.9633 227.234 30.0867 226.749 30.2137 226.263C30.2137 226.26 30.2137 226.26 30.2164 226.257C31.1486 222.547 32.5191 218.96 34.2991 215.572C34.3536 215.472 34.408 215.369 34.4679 215.268C35.2921 213.768 36.238 212.338 37.2959 210.992C37.8776 210.257 38.4963 209.551 39.1495 208.878C40.8408 207.143 42.7953 205.683 44.9415 204.553C49.2203 202.301 54.174 201.438 58.7468 202.814C58.8637 202.849 58.9782 202.884 59.0951 202.922Z" fill="#F0F0F0"/>
<path d="M59.0683 203.073C53.1277 204.249 47.7099 207.262 43.5844 211.682C42.6793 212.618 41.9279 213.691 41.3577 214.86C40.8393 216.017 40.641 217.291 40.7836 218.55C40.8929 219.726 41.1413 220.917 40.9618 222.1C40.8608 222.704 40.633 223.28 40.2932 223.79C39.9533 224.3 39.5092 224.733 38.9898 225.06C37.7171 225.908 36.2145 226.249 34.7335 226.532C33.089 226.847 31.376 227.148 30.0036 228.172C29.8373 228.296 29.6539 228.031 29.82 227.907C32.2078 226.126 35.4076 226.5 38.0197 225.242C39.2386 224.655 40.2874 223.698 40.5894 222.339C40.8534 221.15 40.5983 219.921 40.4773 218.731C40.3202 217.505 40.4666 216.259 40.9038 215.102C41.4124 213.908 42.1211 212.808 42.9997 211.851C44.9431 209.664 47.2194 207.796 49.745 206.314C52.6181 204.607 55.763 203.403 59.0435 202.753C59.2466 202.712 59.27 203.033 59.0683 203.073Z" fill="white"/>
<path d="M44.8288 210.181C44.1788 209.39 43.8319 208.395 43.85 207.373C43.8682 206.351 44.2502 205.368 44.9279 204.601C45.0656 204.446 45.3133 204.652 45.1755 204.807C44.5431 205.52 44.1873 206.436 44.1724 207.387C44.1574 208.339 44.4843 209.265 45.0939 209.998C45.2262 210.157 44.9604 210.339 44.8288 210.181Z" fill="white"/>
<path d="M40.6493 217.961C42.7334 218.185 44.826 217.619 46.5098 216.374C46.6765 216.251 46.86 216.515 46.6934 216.638C44.9388 217.93 42.76 218.516 40.5917 218.277C40.385 218.254 40.4438 217.938 40.6493 217.961V217.961Z" fill="white"/>
<path d="M52.6731 205.03C52.8607 205.388 53.1346 205.694 53.4701 205.921C53.8057 206.147 54.1925 206.287 54.5957 206.328C54.8026 206.348 54.7436 206.665 54.5381 206.644C54.0928 206.597 53.6658 206.442 53.2945 206.193C52.9232 205.943 52.6189 205.607 52.408 205.213C52.385 205.177 52.3765 205.135 52.384 205.093C52.3916 205.051 52.4147 205.014 52.4488 204.989C52.484 204.965 52.5273 204.956 52.5693 204.964C52.6114 204.971 52.6487 204.995 52.6731 205.03H52.6731Z" fill="white"/>
<path d="M112.396 167.386C106.544 154.483 106.76 138.128 115.841 127.24C118.879 142.338 127.177 155.878 139.265 165.465C143.941 169.145 149.525 172.753 150.802 178.554C151.597 182.163 150.471 185.981 148.523 189.125C146.575 192.269 143.861 194.855 141.177 197.404L140.876 198.276C129.197 190.216 118.247 180.289 112.396 167.386Z" fill="#F0F0F0"/>
<path d="M116.094 127.397C114.004 138.806 115.557 150.954 120.637 161.407C121.735 163.667 123.046 165.864 124.802 167.681C126.527 169.44 128.693 170.706 131.075 171.347C133.283 171.99 135.617 172.393 137.631 173.56C139.753 174.79 141.07 176.854 141.583 179.22C142.211 182.116 141.758 185.064 141.214 187.932C140.61 191.115 139.932 194.413 140.807 197.613C140.913 198.001 140.303 198.143 140.198 197.755C138.675 192.187 141.635 186.695 141.221 181.096C141.028 178.484 140.044 175.914 137.797 174.4C135.833 173.077 133.426 172.66 131.184 172.028C128.83 171.365 126.716 170.352 124.917 168.671C123.077 166.952 121.676 164.801 120.525 162.579C117.952 157.521 116.192 152.092 115.311 146.489C114.269 140.1 114.332 133.581 115.496 127.213C115.568 126.819 116.166 127.006 116.094 127.397V127.397Z" fill="white"/>
<path d="M118.806 158.096C116.91 158.702 114.86 158.616 113.022 157.854C111.184 157.092 109.677 155.703 108.771 153.936C108.589 153.578 109.139 153.279 109.321 153.638C110.162 155.285 111.565 156.578 113.278 157.284C114.992 157.99 116.901 158.063 118.663 157.488C119.046 157.364 119.186 157.972 118.806 158.096H118.806Z" fill="white"/>
<path d="M129.912 171.168C131.806 167.578 132.273 163.408 131.22 159.489C131.116 159.101 131.725 158.959 131.83 159.347C132.918 163.427 132.423 167.766 130.443 171.498C130.255 171.853 129.724 171.522 129.912 171.168Z" fill="white"/>
<path d="M115.074 140.303C115.857 140.221 116.607 139.946 117.256 139.504C117.906 139.062 118.436 138.466 118.797 137.769C118.981 137.411 119.512 137.743 119.329 138.098C118.926 138.866 118.34 139.524 117.623 140.014C116.907 140.504 116.08 140.812 115.217 140.911C115.136 140.927 115.052 140.912 114.982 140.868C114.913 140.825 114.862 140.757 114.841 140.678C114.822 140.597 114.836 140.513 114.88 140.442C114.924 140.372 114.994 140.322 115.074 140.303Z" fill="white"/>
<path d="M163.934 127.366C163.825 127.593 163.717 127.82 163.61 128.051C162.165 131.106 160.97 134.273 160.039 137.521C159.963 137.771 159.89 138.025 159.821 138.277C157.662 146.125 156.982 154.306 157.818 162.401C158.153 165.623 158.734 168.814 159.555 171.947C160.69 176.274 162.265 180.876 161.909 185.197C161.877 185.648 161.817 186.097 161.73 186.541L141.966 198.575C141.908 198.58 141.852 198.589 141.793 198.594L141.026 199.111C140.972 198.952 140.92 198.786 140.866 198.628C140.835 198.536 140.807 198.441 140.776 198.349C140.756 198.287 140.737 198.225 140.716 198.17C140.709 198.149 140.703 198.128 140.699 198.112C140.678 198.057 140.664 198.004 140.645 197.954C140.351 197.028 140.062 196.099 139.779 195.166C139.777 195.162 139.777 195.162 139.778 195.155C137.643 188.042 136.085 180.689 135.696 173.335C135.684 173.113 135.67 172.888 135.667 172.661C135.51 169.345 135.626 166.021 136.012 162.724C136.229 160.919 136.538 159.126 136.937 157.352C137.977 152.771 139.734 148.382 142.142 144.345C146.945 136.298 154.275 129.871 163.247 127.538C163.476 127.478 163.702 127.421 163.934 127.366Z" fill="#F0F0F0"/>
<path d="M164.043 127.643C155.484 135.498 149.387 146.13 147.13 157.524C146.642 159.988 146.362 162.529 146.667 165.034C146.982 167.474 147.947 169.784 149.461 171.726C150.836 173.565 152.457 175.288 153.359 177.428C154.311 179.684 154.116 182.122 153.097 184.32C151.849 187.009 149.707 189.091 147.541 191.054C145.136 193.233 142.603 195.459 141.369 198.54C141.219 198.913 140.647 198.66 140.796 198.287C142.944 192.927 148.624 190.319 151.675 185.601C153.098 183.399 153.865 180.756 152.985 178.199C152.215 175.963 150.546 174.186 149.137 172.336C147.658 170.393 146.582 168.315 146.161 165.894C145.73 163.416 145.91 160.859 146.333 158.394C147.333 152.811 149.207 147.419 151.887 142.417C154.914 136.691 158.902 131.523 163.677 127.137C163.972 126.866 164.337 127.374 164.043 127.643Z" fill="white"/>
<path d="M147.668 153.782C145.788 153.128 144.203 151.829 143.196 150.117C142.189 148.406 141.824 146.393 142.168 144.438C142.239 144.043 142.859 144.134 142.788 144.53C142.464 146.35 142.803 148.225 143.745 149.817C144.686 151.408 146.167 152.613 147.921 153.211C148.302 153.342 148.047 153.912 147.668 153.782H147.668Z" fill="white"/>
<path d="M148.64 170.886C152.321 169.156 155.213 166.106 156.739 162.346C156.889 161.973 157.462 162.226 157.311 162.598C155.716 166.509 152.7 169.676 148.866 171.468C148.5 171.638 148.277 171.055 148.64 170.886H148.64Z" fill="white"/>
<path d="M155.434 137.336C156.109 137.74 156.873 137.971 157.659 138.008C158.445 138.045 159.228 137.886 159.937 137.547C160.3 137.372 160.524 137.955 160.163 138.129C159.377 138.5 158.512 138.674 157.644 138.635C156.776 138.596 155.93 138.346 155.181 137.906C155.107 137.871 155.049 137.808 155.02 137.732C154.99 137.656 154.991 137.571 155.021 137.495C155.055 137.419 155.118 137.36 155.195 137.331C155.272 137.301 155.358 137.303 155.434 137.336Z" fill="white"/>
<path d="M151.126 192.947C151.233 192.571 151.256 192.176 151.193 191.79C151.131 191.404 150.984 191.037 150.764 190.713C150.544 190.39 150.255 190.119 149.918 189.919C149.581 189.719 149.204 189.595 148.814 189.556L142.268 168.999L138.877 172.598L145.832 192.137C145.81 192.795 146.03 193.438 146.451 193.945C146.873 194.451 147.466 194.786 148.118 194.886C148.771 194.986 149.437 194.843 149.992 194.486C150.546 194.128 150.949 193.581 151.126 192.947H151.126Z" fill="#FFB6B6"/>
<path d="M132.573 152.875C132.573 152.875 134.652 150.155 137.996 152.206C141.34 154.256 144.767 165.966 145.376 167.837C145.985 169.708 145.868 180.315 145.868 180.315L140.723 181.979L132.573 152.875Z" fill="#3F3D56"/>
<path d="M181.21 228.655H105.167L107.834 220.04H107.834C124.364 214.075 115.079 201.252 130.802 193.415C169.262 174.245 184.151 117.039 178.52 94.4251L203.723 93.3628C203.723 93.3628 238.529 191.9 181.21 228.655Z" fill="#3F3D56"/>
<path d="M201.944 182.327L224.174 165.502L235.009 176.304L198.794 201.009L201.944 182.327Z" fill="#3F3D56"/>
<path d="M141.813 174.202L141.47 178.022C141.47 178.022 141.322 181.195 140.852 181.896C140.385 182.594 127.65 182.682 127.65 182.682C127.65 182.682 126.808 178.16 126.083 174.202H141.813Z" fill="#FFB6B6"/>
<path d="M98.4218 221.133L95.7593 220.597L96.5213 209.876L100.451 210.668L98.4218 221.133Z" fill="#FFB6B6"/>
<path d="M107.756 222.704H105.042L103.751 212.036H107.756L107.756 222.704Z" fill="#FFB6B6"/>
<path d="M103.412 218.314L108.745 218.808L111.654 197.317C121.242 198.96 130.287 199.487 138.111 197.498C139.396 197.16 140.495 196.332 141.172 195.192C141.849 194.053 142.048 192.693 141.728 191.408C141.698 191.282 141.662 191.157 141.622 191.033C140.686 188.185 136.888 185.45 134.957 182.318L124.258 186.694L123.773 188.67L110.07 186.903C109.408 186.824 108.737 186.876 108.096 187.057C107.454 187.238 106.855 187.544 106.332 187.957C105.81 188.369 105.374 188.881 105.051 189.463C104.728 190.044 104.523 190.684 104.449 191.344C104.431 191.492 104.419 191.641 104.413 191.791L103.412 218.314Z" fill="#2F2E41"/>
<path d="M95.3047 213.788L100.637 214.282L110.306 194.569C119.895 196.213 128.94 196.739 136.764 194.751C138.049 194.412 139.148 193.584 139.825 192.444C140.502 191.305 140.701 189.945 140.381 188.66C140.35 188.534 140.315 188.409 140.275 188.286C139.339 185.437 143.357 184.625 141.426 181.492L127.32 181.706L122.426 185.923L108.723 184.155C108.061 184.076 107.39 184.129 106.749 184.309C106.107 184.49 105.508 184.796 104.985 185.209C104.463 185.622 104.027 186.134 103.704 186.715C103.381 187.296 103.176 187.936 103.102 188.596C103.084 188.745 103.072 188.893 103.066 189.043L95.3047 213.788Z" fill="#2F2E41"/>
<path d="M143.343 156.47L143.099 180.369C143.099 180.369 141.322 180.382 140.852 181.078C140.386 181.777 126.418 176.559 126.418 176.559C126.418 176.559 126.192 174.387 125.682 171.266C125.599 170.752 125.509 170.213 125.411 169.655C125.386 169.523 125.367 169.393 125.352 169.261C124.833 165.465 126.579 162.2 126.579 162.2L131.786 156.088L132.62 152.277C132.668 152.06 132.782 151.864 132.947 151.715C133.112 151.566 133.32 151.472 133.541 151.446L138.794 150.829C139.412 151.258 139.316 152.952 140.07 152.977C141.238 152.977 143.343 156.47 143.343 156.47Z" fill="#3F3D56"/>
<path opacity="0.2" d="M138.967 162.172L125.682 169.11C125.599 168.595 125.509 168.056 125.411 167.499C125.386 167.366 125.367 167.237 125.352 167.104L138.967 162.172Z" fill="black"/>
<path d="M126.277 177.833C127.014 177.833 127.611 177.119 127.611 176.238C127.611 175.357 127.014 174.642 126.277 174.642C125.541 174.642 124.944 175.357 124.944 176.238C124.944 177.119 125.541 177.833 126.277 177.833Z" fill="#3F3D56"/>
<path d="M134.372 149.86C137.986 149.86 140.915 146.94 140.915 143.337C140.915 139.734 137.986 136.814 134.372 136.814C130.758 136.814 127.828 139.734 127.828 143.337C127.828 146.94 130.758 149.86 134.372 149.86Z" fill="#FFB6B6"/>
<path d="M97.5664 224.881L95.6966 224.082L96.1195 222.18L94.508 223.574L89.5486 221.455C89.3109 221.354 89.1119 221.179 88.9808 220.957C88.8497 220.734 88.7933 220.476 88.8199 220.22C88.8464 219.963 88.9545 219.722 89.1284 219.531C89.3022 219.34 89.5327 219.21 89.7862 219.159L94.9191 218.124L95.6841 216.345L99.7432 218.373L97.5664 224.881Z" fill="#2F2E41"/>
<path d="M109.036 228.288H107.002L106.638 226.373L105.708 228.288H100.313C100.054 228.288 99.8021 228.205 99.5938 228.052C99.3854 227.9 99.2315 227.685 99.1546 227.438C99.0776 227.192 99.0816 226.928 99.1659 226.684C99.2503 226.44 99.4105 226.23 99.6234 226.083L103.932 223.117V221.181L108.465 221.451L109.036 228.288Z" fill="#2F2E41"/>
<path d="M151.122 140.501C150.101 139.314 149.616 137.738 148.799 136.39C147.982 135.042 146.562 133.835 145.06 134.149C144.026 134.365 143.226 135.275 142.821 136.29C142.416 137.305 142.34 138.424 142.27 139.52C142.295 137.267 140.806 135.083 138.754 134.364C137.712 134.028 136.589 134.03 135.548 134.37C134.506 134.71 133.6 135.371 132.96 136.257C132.397 135.737 131.663 135.442 130.896 135.426C130.13 135.409 129.384 135.674 128.8 136.17C128.233 136.717 127.87 137.439 127.768 138.219C127.666 138.998 127.833 139.789 128.24 140.463C128.665 141.1 129.31 141.561 130.052 141.758C130.794 141.955 131.583 141.876 132.271 141.534L132.747 141.971C132.624 142.438 132.669 142.933 132.875 143.37C133.081 143.808 133.434 144.159 133.873 144.362C134.582 144.648 135.583 144.6 135.848 145.342C136.033 145.86 135.687 146.413 135.318 146.811C134.95 147.209 134.512 147.62 134.468 148.171C134.401 149.002 135.263 149.585 136.046 149.76C137.007 149.952 138.002 149.853 138.906 149.477C139.81 149.101 140.581 148.465 141.119 147.649C141.14 147.617 141.163 147.585 141.188 147.553C141.799 146.774 142.244 145.88 142.496 144.924C142.748 143.968 142.802 142.971 142.655 141.993C142.594 141.609 142.655 141.324 142.921 141.233C144.069 140.839 147.286 141.665 148.259 142.41C149.233 143.156 150.012 144.143 150.95 144.937C151.888 145.731 153.083 146.343 154.273 146.127C154.753 146.012 155.204 145.803 155.601 145.512C155.998 145.221 156.332 144.853 156.584 144.431C157.098 143.57 157.483 142.637 157.725 141.664C156.655 142.246 155.419 142.447 154.219 142.236C153.019 142.025 151.927 141.413 151.122 140.501Z" fill="#2F2E41"/>
<path d="M57.0383 222.936L59.8362 224.124L65.7666 213.932L61.6372 212.178L57.0383 222.936Z" fill="#FFB6B6"/>
<path d="M80.1586 225.575L83.1996 225.575L84.6468 213.881H80.158L80.1586 225.575Z" fill="#FFB6B6"/>
<path d="M80.0517 228.738L89.4038 228.737V228.619C89.4037 227.657 89.0202 226.734 88.3375 226.054C87.6549 225.373 86.7291 224.991 85.7637 224.991H85.7635L84.0552 223.699L80.8679 224.991L80.0515 224.991L80.0517 228.738Z" fill="#2F2E41"/>
<path d="M55.3372 224.96L63.9406 228.615L63.987 228.507C64.3655 227.621 64.3756 226.623 64.0153 225.73C63.6549 224.837 62.9536 224.123 62.0655 223.746L62.0653 223.746L61.0019 221.89L57.5616 221.832L56.8106 221.513L55.3372 224.96Z" fill="#2F2E41"/>
<path d="M83.1419 156.365L87.7639 184.421L86.5061 188.602L88.1567 191.563L85.7327 217.568L86.7167 219.728L83.9676 221.418H78.3736L78.0767 197.876L76.6949 194.419V192.514L73.882 178.158L73.3641 194.579L72.5458 198.041L73.2331 200.506L72.3351 202.233L64.6386 218.708H58.366L58.8511 214.982C57.7273 214.415 60.5384 212.757 60.8086 211.531L59.8849 209.459L60.8086 205.546L61.6554 197.899L60.7623 181.758L61.1826 160.023L68.5204 154.429L83.1419 156.365Z" fill="#2F2E41"/>
<path d="M71.8859 119.416C75.3868 119.416 78.2249 116.586 78.2249 113.096C78.2249 109.606 75.3868 106.777 71.8859 106.777C68.3849 106.777 65.5469 109.606 65.5469 113.096C65.5469 116.586 68.3849 119.416 71.8859 119.416Z" fill="#FFB6B6"/>
<path d="M60.8714 168.003C61.0491 167.685 61.1548 167.333 61.181 166.97C61.2073 166.608 61.1534 166.244 61.0233 165.904C60.8932 165.564 60.69 165.257 60.4279 165.004C60.1659 164.752 59.8515 164.559 59.5067 164.44L59.4917 155.603L55.6504 158.138L56.2536 166.141C56.0921 166.732 56.1535 167.361 56.4262 167.909C56.6989 168.458 57.1639 168.887 57.7331 169.117C58.3024 169.346 58.9362 169.359 59.5146 169.154C60.093 168.949 60.5758 168.539 60.8714 168.003Z" fill="#FFB6B6"/>
<path d="M60.5164 128.901L58.8003 127.252L57.5396 128.159C57.5396 128.159 56.2992 129.643 55.307 134.094C54.3147 138.546 55.307 163.028 55.307 163.028L60.7645 162.286L60.0203 149.427L62.2529 138.546L60.5164 128.901Z" fill="#CCCCCC"/>
<path d="M98.2996 162.994C98.3786 162.639 98.3785 162.271 98.2995 161.916C98.2204 161.561 98.0643 161.228 97.8421 160.94C97.6198 160.651 97.3369 160.415 97.0132 160.248C96.6895 160.08 96.3329 159.986 95.9685 159.97L93.415 151.508L90.4629 155.033L93.3403 162.529C93.3553 163.141 93.5949 163.726 94.0138 164.173C94.4326 164.621 95.0016 164.9 95.6129 164.957C96.2241 165.014 96.8353 164.846 97.3304 164.484C97.8256 164.122 98.1704 163.592 98.2996 162.994Z" fill="#FFB6B6"/>
<path d="M81.7348 128.209L82.8792 126.125L84.3539 126.616C84.3539 126.616 85.9819 127.663 88.2613 131.617C89.3156 133.445 91.5947 145.17 91.5947 145.17L96.9218 159.232L91.4909 160.148L86.9594 148.559L81.7061 137.469L81.7348 128.209Z" fill="#CCCCCC"/>
<path d="M57.9822 127.654L63.764 124.901L67.6894 121.271L74.8475 121.218L77.1566 124.211L83.2526 126.275L82.2366 147.23L82.9293 148.841C82.9293 148.841 82.4467 149.276 82.2262 149.519C82.0057 149.762 82.5309 151.797 82.5309 151.797L82.827 154.011L82.0057 154.596L83.0734 155.853L83.3385 157.835C83.3385 157.835 64.7008 153.217 61.1792 160.867C60.9931 161.271 61.4513 157.321 61.4513 157.321L61.9095 154.429L61.4549 151.834L60.7622 151.143L61.924 149.985L61.1792 144.489L57.9822 127.654Z" fill="#CCCCCC"/>
<path d="M70.2644 119.106C70.2373 119.047 70.2103 118.987 70.1833 118.927C70.1937 118.928 70.204 118.929 70.2144 118.929L70.2644 119.106Z" fill="#2F2E41"/>
<path d="M65.3706 107.064C65.6716 106.781 66.0628 106.613 66.4758 106.588C66.8857 106.601 67.3014 106.97 67.2165 107.37C67.9694 106.041 69.1678 105.019 70.6014 104.483C72.035 103.947 73.612 103.932 75.0559 104.44C76.0746 104.798 77.0737 105.515 77.3078 106.566C77.3305 106.842 77.4131 107.11 77.5498 107.351C77.6682 107.48 77.8219 107.572 77.9919 107.615C78.1619 107.658 78.3408 107.65 78.5065 107.593L78.5166 107.59C78.5733 107.571 78.6345 107.569 78.6923 107.585C78.7502 107.6 78.8019 107.633 78.8409 107.678C78.8799 107.724 78.9043 107.78 78.911 107.839C78.9177 107.899 78.9063 107.959 78.8785 108.012L78.5902 108.548C78.9536 108.628 79.3311 108.62 79.6907 108.524C79.7505 108.509 79.8136 108.512 79.8715 108.533C79.9293 108.555 79.979 108.594 80.0138 108.645C80.0487 108.695 80.0668 108.756 80.0659 108.817C80.0649 108.879 80.0449 108.939 80.0085 108.988C79.5295 109.642 78.904 110.175 78.182 110.545C77.46 110.915 76.6613 111.112 75.8495 111.12C74.6977 111.113 73.5341 110.717 72.4132 110.981C71.9795 111.083 71.5743 111.281 71.2273 111.559C70.8803 111.838 70.6002 112.191 70.4077 112.591C70.2151 112.992 70.115 113.43 70.1146 113.874C70.1143 114.319 70.2137 114.757 70.4055 115.158C70.0612 114.783 69.3955 114.872 69.0433 115.24C68.881 115.437 68.7611 115.665 68.691 115.91C68.6208 116.155 68.6019 116.412 68.6353 116.665C68.7293 117.439 68.9598 118.19 69.3163 118.885C67.9543 118.843 66.638 118.385 65.5451 117.574C64.4522 116.762 63.6355 115.636 63.2053 114.347C62.775 113.058 62.7519 111.669 63.1392 110.366C63.5264 109.064 64.3053 107.911 65.3706 107.064H65.3706Z" fill="#2F2E41"/>
<path d="M72.1264 40.4296C80.8304 40.4296 87.8864 33.3955 87.8864 24.7184C87.8864 16.0414 80.8304 9.00732 72.1264 9.00732C63.4224 9.00732 56.3665 16.0414 56.3665 24.7184C56.3665 33.3955 63.4224 40.4296 72.1264 40.4296Z" fill="#E1315A"/>
<path d="M100.567 12.6641C92.9291 11.6349 84.2091 15.7505 82.2294 23.1763C81.7306 21.856 80.8235 20.7279 79.6395 19.9552C78.4554 19.1824 77.0555 18.8049 75.6421 18.8772C74.2287 18.9495 72.8749 19.4679 71.7764 20.3574C70.6779 21.2469 69.8915 22.4616 69.5308 23.8259L70.4052 24.4502C86.7732 27.9788 103.717 27.9024 120.052 24.2264C114.739 18.6601 108.205 13.6933 100.567 12.6641Z" fill="#F0F0F0"/>
<path d="M67.8112 33.6122C60.1732 32.583 51.4532 36.6986 49.4736 44.1244C48.9747 42.8041 48.0677 41.6761 46.8836 40.9033C45.6995 40.1305 44.2996 39.753 42.8862 39.8253C41.4728 39.8976 40.1191 40.416 39.0206 41.3055C37.922 42.1951 37.1356 43.4097 36.7749 44.774L37.6493 45.3983C54.0173 48.927 70.9607 48.8506 87.296 45.1746C81.983 39.6082 75.4491 34.6414 67.8112 33.6122Z" fill="#F0F0F0"/>
<path d="M96.2198 162.203C96.5155 161.946 96.864 161.757 97.2409 161.649C97.6177 161.541 98.0137 161.517 98.401 161.578C98.7882 161.639 99.1573 161.784 99.4822 162.003C99.8071 162.222 100.08 162.509 100.282 162.844L121.727 159.999L119.904 164.589L99.2077 166.633C98.6203 166.933 97.9428 167.008 97.3037 166.844C96.6645 166.679 96.108 166.287 95.7397 165.741C95.3714 165.195 95.2169 164.533 95.3053 163.881C95.3938 163.229 95.7192 162.632 96.2198 162.203V162.203Z" fill="#FFB6B6"/>
<path d="M140.054 155.578C140.054 155.578 142.577 157.893 140.219 161.023C137.86 164.152 125.847 166.466 123.921 166.897C121.996 167.328 111.414 166.227 111.414 166.227L110.229 160.966L140.054 155.578Z" fill="#3F3D56"/>
<path d="M171.211 196.474C172.555 185.702 179.251 175.089 189.556 171.584C185.492 182.671 185.493 194.833 189.558 205.92C191.142 210.189 193.349 214.774 191.859 219.077C190.933 221.755 188.666 223.804 186.132 225.085C183.597 226.366 180.785 226.976 178.008 227.574L177.461 228.025C173.052 218.1 169.868 207.245 171.211 196.474Z" fill="#E6E6E6"/>
<path d="M189.658 171.788C183.657 178.491 179.927 186.908 178.999 195.845C178.764 197.765 178.835 199.71 179.209 201.608C179.632 203.446 180.542 205.137 181.843 206.505C183.03 207.806 184.395 208.999 185.245 210.564C185.668 211.372 185.914 212.259 185.969 213.169C186.024 214.078 185.885 214.989 185.561 215.841C184.812 217.986 183.333 219.734 181.828 221.393C180.157 223.235 178.392 225.122 177.682 227.564C177.596 227.86 177.14 227.71 177.226 227.414C178.462 223.165 182.6 220.752 184.573 216.924C185.494 215.139 185.88 213.065 185.017 211.18C184.262 209.532 182.855 208.3 181.642 206.994C180.353 205.678 179.407 204.067 178.887 202.302C178.418 200.429 178.272 198.489 178.456 196.567C178.799 192.234 179.825 187.981 181.494 183.965C183.373 179.371 186.027 175.131 189.341 171.429C189.546 171.2 189.862 171.56 189.658 171.788Z" fill="white"/>
<path d="M179.128 192.95C177.645 192.591 176.338 191.718 175.441 190.487C174.544 189.257 174.115 187.748 174.231 186.232C174.255 185.925 174.735 185.948 174.71 186.255C174.6 187.668 175 189.073 175.837 190.217C176.675 191.361 177.895 192.169 179.278 192.495C179.579 192.567 179.426 193.02 179.128 192.95H179.128Z" fill="white"/>
<path d="M181.154 205.925C183.832 204.331 185.809 201.789 186.691 198.806C186.778 198.51 187.233 198.661 187.146 198.956C186.223 202.058 184.16 204.699 181.369 206.352C181.103 206.51 180.889 206.082 181.154 205.925V205.925Z" fill="white"/>
<path d="M183.818 179.824C184.363 180.082 184.964 180.201 185.566 180.171C186.168 180.14 186.753 179.961 187.269 179.649C187.533 179.489 187.747 179.917 187.485 180.076C186.914 180.418 186.267 180.615 185.602 180.65C184.936 180.686 184.272 180.558 183.668 180.278C183.609 180.257 183.56 180.213 183.532 180.157C183.503 180.101 183.497 180.036 183.515 179.976C183.535 179.916 183.579 179.866 183.635 179.838C183.692 179.809 183.758 179.804 183.818 179.824Z" fill="white"/>
<path d="M220.966 190.823C220.804 190.928 220.642 191.033 220.48 191.142C218.309 192.565 216.259 194.161 214.348 195.914C214.198 196.048 214.048 196.185 213.902 196.322C209.344 200.596 205.621 205.677 202.923 211.306C201.851 213.546 200.952 215.865 200.233 218.242C199.241 221.525 198.427 225.162 196.463 227.847C196.261 228.13 196.042 228.399 195.806 228.655H178.055C178.014 228.635 177.974 228.618 177.933 228.598L177.225 228.631C177.253 228.505 177.285 228.376 177.314 228.251C177.33 228.178 177.35 228.106 177.366 228.033C177.378 227.985 177.391 227.936 177.399 227.892C177.403 227.876 177.407 227.859 177.411 227.847C177.419 227.803 177.431 227.763 177.439 227.722C177.618 226.999 177.801 226.277 177.99 225.554C177.99 225.55 177.99 225.55 177.994 225.546C179.448 220.043 181.376 214.612 184.069 209.646C184.15 209.497 184.231 209.343 184.32 209.194C185.547 206.962 186.954 204.834 188.528 202.831C189.394 201.737 190.315 200.687 191.287 199.685C193.803 197.103 196.712 194.931 199.905 193.25C206.272 189.898 213.643 188.615 220.447 190.662C220.621 190.714 220.792 190.766 220.966 190.823Z" fill="#E6E6E6"/>
<path d="M220.926 191.048C212.086 192.798 204.024 197.28 197.886 203.858C196.539 205.251 195.421 206.846 194.573 208.586C193.801 210.307 193.506 212.203 193.718 214.077C193.881 215.828 194.25 217.6 193.983 219.359C193.833 220.258 193.494 221.115 192.988 221.874C192.483 222.633 191.822 223.277 191.049 223.763C189.155 225.025 186.919 225.534 184.716 225.955C182.269 226.423 179.72 226.87 177.678 228.394C177.43 228.579 177.157 228.185 177.404 228.001C180.957 225.35 185.719 225.906 189.606 224.035C191.419 223.161 192.98 221.738 193.429 219.715C193.822 217.945 193.442 216.118 193.262 214.346C193.029 212.522 193.247 210.668 193.897 208.947C194.654 207.169 195.708 205.534 197.016 204.109C199.908 200.855 203.295 198.075 207.053 195.87C211.328 193.33 216.008 191.538 220.889 190.571C221.191 190.511 221.226 190.988 220.926 191.048Z" fill="white"/>
<path d="M199.737 201.624C198.77 200.447 198.254 198.966 198.281 197.445C198.308 195.925 198.877 194.463 199.885 193.321C200.09 193.091 200.458 193.397 200.253 193.628C199.312 194.689 198.783 196.051 198.761 197.467C198.738 198.884 199.225 200.261 200.132 201.352C200.329 201.589 199.933 201.86 199.737 201.624H199.737Z" fill="white"/>
<path d="M193.519 213.2C196.62 213.535 199.734 212.692 202.239 210.839C202.487 210.655 202.76 211.049 202.512 211.232C199.901 213.155 196.659 214.026 193.433 213.671C193.125 213.637 193.213 213.166 193.519 213.2Z" fill="white"/>
<path d="M211.41 193.959C211.689 194.492 212.096 194.948 212.596 195.285C213.095 195.622 213.671 195.83 214.271 195.891C214.578 195.921 214.491 196.392 214.185 196.362C213.522 196.292 212.887 196.061 212.334 195.689C211.782 195.318 211.329 194.818 211.015 194.232C210.981 194.179 210.968 194.115 210.98 194.053C210.991 193.991 211.025 193.936 211.076 193.899C211.128 193.863 211.193 193.849 211.255 193.86C211.318 193.872 211.373 193.907 211.41 193.959Z" fill="white"/>
<path d="M246.129 188.159C243.858 190.15 240.952 191.274 237.928 191.33C234.904 191.387 231.957 190.372 229.613 188.467L229.564 188.427L229.562 188.363C229.534 187.308 229.369 186.26 229.071 185.247C229.056 185.977 228.949 186.701 228.753 187.404L228.69 187.641L228.519 187.465C228.371 187.313 228.228 187.159 228.094 187.007C227.306 186.115 226.645 185.117 226.131 184.044C223.801 179.163 220.293 174.805 215.705 171.089C214.919 170.451 214.188 169.749 213.518 168.991C210.691 165.784 209.1 161.678 209.033 157.408C208.965 153.139 210.423 148.985 213.148 145.69C215.872 142.395 219.684 140.175 223.901 139.426C228.117 138.678 232.464 139.45 236.161 141.605L236.274 141.67L236.216 141.787C235.787 142.673 235.222 143.486 234.54 144.197C235.478 143.692 236.345 143.067 237.121 142.338L237.203 142.261L237.295 142.324C238.51 143.162 239.618 144.145 240.593 145.251L240.698 145.371C241.443 146.22 242.358 146.903 243.385 147.375C244.412 147.847 245.528 148.099 246.659 148.113C248.504 148.144 250.321 148.573 251.984 149.371C253.647 150.168 255.117 151.316 256.293 152.734C257.468 154.152 258.322 155.807 258.795 157.586C259.268 159.364 259.348 161.224 259.032 163.036L259.017 163.12L258.935 163.145C257.206 163.67 255.769 163.85 254.469 163.701C255.731 164.249 257.075 164.584 258.447 164.694L258.624 164.708L258.568 164.876C257.853 167.015 256.581 168.927 254.883 170.415L254.834 170.458C254.817 170.473 254.8 170.488 254.783 170.503C253.517 171.589 252.481 172.917 251.737 174.408C250.992 175.899 250.554 177.523 250.448 179.185C250.364 180.892 249.938 182.565 249.197 184.106C248.455 185.647 247.412 187.025 246.129 188.159Z" fill="#E1315A"/>
<path opacity="0.15" d="M248.456 184.064C248.433 184.523 248.385 184.98 248.312 185.434C249.557 183.527 250.274 181.326 250.389 179.054C250.406 178.706 250.442 178.359 250.491 178.015C249.281 179.813 248.578 181.902 248.456 184.064Z" fill="black"/>
<path opacity="0.15" d="M252.477 168.58C253.492 169.018 254.561 169.319 255.656 169.476C256.078 169.032 256.467 168.559 256.821 168.059C255.147 168.555 253.746 168.726 252.477 168.58Z" fill="black"/>
<path opacity="0.15" d="M257.162 164.396C257.275 165.497 257.244 166.608 257.071 167.702C257.677 166.783 258.16 165.788 258.509 164.745L258.565 164.577L258.388 164.563C257.977 164.528 257.567 164.472 257.162 164.396Z" fill="black"/>
<path opacity="0.15" d="M255.979 152.305C254.803 150.974 253.361 149.903 251.746 149.158C250.131 148.414 248.379 148.013 246.6 147.981C245.469 147.967 244.353 147.716 243.326 147.244C242.299 146.771 241.384 146.088 240.639 145.239L240.534 145.119C239.559 144.013 238.451 143.031 237.237 142.193L237.144 142.129L237.062 142.206C236.286 142.935 235.419 143.56 234.481 144.065C235.163 143.355 235.728 142.541 236.157 141.655L236.215 141.539L236.103 141.473C233.651 140.043 230.895 139.211 228.06 139.044C225.224 138.878 222.39 139.382 219.787 140.516C217.184 141.65 214.887 143.381 213.083 145.568C211.279 147.756 210.02 150.337 209.407 153.102C210.587 151.036 212.166 149.224 214.054 147.771C215.941 146.318 218.099 145.253 220.402 144.637C222.705 144.022 225.108 143.868 227.471 144.185C229.835 144.502 232.111 145.283 234.17 146.484L234.282 146.549L234.224 146.666C233.795 147.552 233.23 148.365 232.548 149.076C233.486 148.57 234.353 147.946 235.129 147.217L235.211 147.14L235.303 147.203C236.518 148.041 237.626 149.024 238.601 150.129L238.706 150.25C239.451 151.098 240.366 151.781 241.393 152.254C242.42 152.726 243.536 152.978 244.667 152.992C247.624 153.042 250.473 154.112 252.726 156.022C254.98 157.931 256.5 160.561 257.026 163.463C257.652 163.351 258.269 163.201 258.876 163.014L258.958 162.989L258.973 162.905C259.304 161.027 259.208 159.099 258.689 157.264C258.171 155.429 257.245 153.734 255.979 152.305Z" fill="black"/>
<path d="M282.884 99.8492C282.883 109.558 279.428 118.952 273.134 126.361C266.839 133.77 258.114 138.714 248.507 140.313L248.304 140.346L248.147 140.215C245.528 138.038 242.637 136.209 239.546 134.773C241.283 136.36 242.813 138.158 244.101 140.125L244.539 140.781L243.75 140.819C243.068 140.852 242.391 140.869 241.737 140.869C237.895 140.872 234.071 140.344 230.375 139.298C213.585 134.536 195.554 133.722 176.785 136.878C173.567 137.417 170.309 137.688 167.045 137.688C135.043 137.688 109.006 111.727 109.006 79.8168C108.989 67.6504 112.825 55.7889 119.966 45.9232C127.108 36.0575 137.192 28.691 148.78 24.8736L149.179 24.7419L149.336 25.1302C150.575 28.0465 151.344 31.1391 151.617 34.2942C152.387 30.9598 152.716 27.5395 152.597 24.1201L152.585 23.7591L152.937 23.6711C157.552 22.5245 162.29 21.9452 167.045 21.9459L167.56 21.948C171.202 21.9588 174.806 21.2043 178.136 19.7336C181.466 18.263 184.447 16.1092 186.886 13.4127C190.886 9.03084 195.79 5.56462 201.261 3.25255C206.732 0.940484 212.641 -0.162548 218.581 0.0193368C224.521 0.201222 230.351 1.66371 235.67 4.30618C240.988 6.94865 245.67 10.7084 249.392 15.3267L249.565 15.5406L249.451 15.7912C247.046 21.0734 244.427 24.9216 241.301 27.7358C245.313 25.8597 248.985 23.3338 252.169 20.2607L252.579 19.8634L252.868 20.3567C256.536 26.6284 258.468 33.7589 258.465 41.019L258.464 41.2259C258.464 41.299 258.464 41.3726 258.464 41.4456C258.464 52.5514 262.772 63.0774 270.303 70.3573C274.264 74.1905 277.417 78.7738 279.577 83.8381C281.738 88.9025 282.862 94.346 282.884 99.8492Z" fill="#E1315A"/>
<g opacity="0.15">
<path opacity="0.15" d="M232.58 2.91199C231.161 5.25911 229.415 7.39376 227.395 9.25213C230.288 7.89831 233.007 6.2039 235.495 4.20513C234.541 3.73639 233.569 3.30534 232.58 2.91199Z" fill="black"/>
<path opacity="0.15" d="M256.397 51.8737C258.635 54.0385 260.619 56.449 262.313 59.0591C259.764 53.5356 258.451 47.5256 258.464 41.4456C258.464 41.3725 258.464 41.299 258.464 41.2259L258.465 41.019C258.468 33.7589 256.536 26.6284 252.868 20.3567L252.579 19.8634L252.168 20.2607C249.9 22.4466 247.381 24.3587 244.664 25.9575C245.364 35.9441 249.547 45.2519 256.397 51.8737Z" fill="black"/>
<path opacity="0.15" d="M244.559 22.5353L244.559 22.7422C244.558 22.8153 244.558 22.8889 244.558 22.9619C244.558 23.3646 244.565 23.7662 244.577 24.1672C246.514 21.5684 248.15 18.7583 249.451 15.7912L249.565 15.5406L249.392 15.3267C247.221 12.6338 244.72 10.2227 241.948 8.14978C243.674 12.7508 244.558 17.6231 244.559 22.5353Z" fill="black"/>
<path opacity="0.15" d="M270.303 70.3573C268.323 68.4377 266.564 66.3044 265.058 63.9967C267.755 69.7242 269.085 75.9965 268.943 82.322C268.802 88.6475 267.193 94.8544 264.243 100.456C261.293 106.058 257.081 110.903 251.939 114.611C246.796 118.319 240.862 120.79 234.601 121.829L234.398 121.862L234.241 121.732C231.622 119.554 228.731 117.725 225.64 116.289C227.377 117.876 228.907 119.674 230.195 121.641L230.633 122.298L229.844 122.335C229.162 122.368 228.485 122.385 227.831 122.385C223.989 122.388 220.165 121.86 216.469 120.814C199.679 116.052 181.648 115.238 162.879 118.394C159.661 118.933 156.403 119.204 153.14 119.204C138.914 119.215 125.185 113.995 114.579 104.545C123.896 124.119 143.91 137.688 167.045 137.688C170.309 137.688 173.567 137.417 176.785 136.878C195.554 133.722 213.584 134.536 230.375 139.298C234.071 140.343 237.895 140.872 241.737 140.869C242.391 140.869 243.068 140.852 243.75 140.819L244.539 140.781L244.101 140.125C242.813 138.158 241.283 136.36 239.546 134.773C242.637 136.209 245.528 138.038 248.147 140.215L248.304 140.346L248.507 140.313C256.025 139.066 263.047 135.762 268.791 130.768C274.534 125.774 278.772 119.287 281.033 112.032C283.293 104.776 283.487 97.0374 281.592 89.6786C279.698 82.3197 275.789 75.6305 270.303 70.3573Z" fill="black"/>
</g>
<path d="M76.6562 89.4686C74.4414 87.0896 73.2928 83.5196 74.4705 80.4937C76.2344 83.5541 79.0273 85.894 82.3552 87.0992C83.6402 87.5594 85.1176 87.9378 85.8192 89.1056C86.2248 89.8608 86.3241 90.7424 86.0966 91.5685C85.8674 92.3852 85.5343 93.1692 85.1052 93.9015L85.1035 94.1129C81.9763 93.2095 78.871 91.8477 76.6562 89.4686Z" fill="#E1315A"/>
<path d="M186.667 158.474C184.452 156.095 183.304 152.525 184.481 149.499C186.245 152.56 189.038 154.9 192.366 156.105C193.651 156.565 195.128 156.944 195.83 158.111C196.236 158.867 196.335 159.748 196.107 160.574C195.878 161.391 195.545 162.175 195.116 162.907L195.114 163.119C191.987 162.215 188.882 160.853 186.667 158.474Z" fill="#E1315A"/>
<path d="M238.541 203.012C236.994 200.156 236.778 196.413 238.678 193.777C239.617 197.18 241.734 200.142 244.654 202.139C245.782 202.905 247.118 203.64 247.504 204.946C247.707 205.778 247.582 206.657 247.154 207.4C246.727 208.133 246.208 208.809 245.609 209.411L245.554 209.615C242.753 207.961 240.088 205.868 238.541 203.012Z" fill="#E1315A"/>
<path d="M275.933 147.869C274.385 145.013 274.169 141.27 276.069 138.634C277.009 142.037 279.125 144.999 282.045 146.996C283.174 147.762 284.509 148.497 284.895 149.803C285.098 150.635 284.973 151.514 284.545 152.257C284.119 152.99 283.599 153.666 283 154.268L282.945 154.472C280.144 152.818 277.48 150.725 275.933 147.869Z" fill="#E1315A"/>
<path d="M31.4984 169.125C29.9512 166.269 29.7352 162.526 31.635 159.89C32.5746 163.293 34.6913 166.256 37.6108 168.253C38.7395 169.019 40.0749 169.754 40.461 171.059C40.6641 171.892 40.539 172.77 40.1114 173.513C39.6845 174.247 39.1652 174.923 38.566 175.524L38.5113 175.729C35.7103 174.074 33.0457 171.981 31.4984 169.125Z" fill="#E1315A"/>
</svg>
