<svg width="280" height="207" viewBox="0 0 280 207" fill="none" xmlns="http://www.w3.org/2000/svg">
<path d="M57.3548 202.184L61.6777 202.183L63.7341 185.519L57.354 185.519L57.3548 202.184Z" fill="#9E616A"/>
<path d="M56.2522 200.773L57.4689 200.773L62.2191 198.842L64.7651 200.773H64.7654C66.2042 200.773 67.584 201.344 68.6014 202.361C69.6188 203.378 70.1904 204.757 70.1905 206.195V206.371L56.2524 206.372L56.2522 200.773Z" fill="#2F2E41"/>
<path d="M77.4371 202.184L81.76 202.183L83.8164 185.519L77.4363 185.519L77.4371 202.184Z" fill="#9E616A"/>
<path d="M76.3346 200.773L77.5513 200.773L82.3015 198.842L84.8475 200.773H84.8478C86.2866 200.773 87.6664 201.344 88.6838 202.361C89.7012 203.378 90.2728 204.757 90.2729 206.195V206.371L76.3348 206.372L76.3346 200.773Z" fill="#2F2E41"/>
<path d="M80.8925 110.987L46.9298 111.872L47.5205 128.402C47.5205 128.402 46.9298 132.83 48.1111 134.01C49.2924 135.191 49.8831 135.191 49.2924 137.257C48.7018 139.324 51.8225 142.698 51.4435 143.077C51.0644 143.456 50.1784 145.522 50.1784 145.522L53.1317 162.347C53.1317 162.347 55.199 191.57 55.7897 192.16C56.3803 192.751 56.971 192.16 56.3803 193.636C55.7896 195.112 55.199 194.522 55.7897 195.112C56.3129 195.676 56.8058 196.267 57.2663 196.883H64.4065C64.4065 196.883 64.9448 193.931 64.9448 193.636C64.9448 193.341 65.5355 191.57 65.5355 191.275C65.5355 190.98 65.0134 190.458 65.0134 190.458C64.833 189.858 64.7111 189.242 64.6495 188.618C64.6495 188.028 62.8775 165.299 62.8775 165.299L66.4215 135.781L74.986 164.709C74.986 164.709 74.986 190.094 75.5766 190.685C76.1673 191.275 76.1673 190.98 75.872 192.16C75.5766 193.341 74.3953 193.046 75.2813 193.931C76.1673 194.817 76.4626 193.341 76.1673 194.817L75.872 196.293L84.7318 196.42C84.7318 196.42 85.9131 193.931 85.3225 193.046C84.7318 192.16 84.7672 192.402 85.4878 190.953C86.2084 189.504 86.5038 189.209 86.2084 188.913C85.9131 188.618 85.9131 187.048 85.9131 187.048L84.4365 158.805C84.4365 158.805 84.1411 128.992 84.1411 128.107C84.1189 127.651 84.2029 127.197 84.3865 126.779V125.577L83.2551 121.318L80.8925 110.987Z" fill="#2F2E41"/>
<path d="M119.328 46.6075C119.165 47.0609 118.904 47.4731 118.564 47.8149C118.224 48.1567 117.814 48.42 117.361 48.586C116.908 48.7521 116.425 48.8169 115.945 48.776C115.464 48.735 114.999 48.5893 114.581 48.3491L99.8382 60.6937L99.037 54.6597L113.456 43.627C113.907 42.952 114.589 42.4656 115.374 42.2598C116.159 42.0541 116.993 42.1434 117.717 42.5107C118.44 42.8781 119.004 43.4981 119.301 44.2531C119.598 45.0082 119.608 45.8459 119.328 46.6075Z" fill="#9E616A"/>
<path d="M54.3215 51.7024C59.3778 51.7024 63.4767 47.6056 63.4767 42.5519C63.4767 37.4982 59.3778 33.4014 54.3215 33.4014C49.2653 33.4014 45.1664 37.4982 45.1664 42.5519C45.1664 47.6056 49.2653 51.7024 54.3215 51.7024Z" fill="#9E616A"/>
<path d="M61.7436 33.4451C60.8913 31.4147 57.2385 30.2091 51.4585 30.3907C45.6786 30.5722 44.6663 37.4614 44.6663 37.4614C41.4827 40.4273 46.6226 49.6871 47.5143 48.4104C48.4061 47.1338 49.9032 48.3405 49.9032 48.3405L48.4765 40.3192C49.9832 40.8986 51.6036 41.2876 53.0209 40.6126L50.6727 39.3577C52.6188 39.5997 54.565 39.8418 56.5111 40.0838L54.1033 38.2324C54.1617 38.2132 54.2201 38.1931 54.2785 38.1735C55.2441 38.5896 56.2781 38.8243 57.3288 38.8657C58.5563 38.8566 59.8609 38.2816 60.3753 37.1676C60.512 36.8617 60.5861 36.5315 60.5931 36.1965C62.2856 36.7457 63.1743 38.7275 63.1743 38.7275C62.853 36.9282 62.3743 35.1607 61.7436 33.4451Z" fill="#2F2E41"/>
<path d="M61.6499 52.1116C59.6054 52.1116 58.2887 52.3936 55.1075 52.929C49.2357 53.918 52.7522 59.4944 52.7522 59.4944C52.7522 59.4944 53.018 59.3596 52.2983 59.4944C51.5787 59.6293 49.1253 61.7504 49.1253 61.7504L44.7378 65.6452C38.1258 70.8316 39.6061 78.9237 39.6061 78.9237L49.2479 88.6219L45.024 108.08C45.024 108.08 46.819 110.969 45.8908 112.265C44.9626 113.56 54.0688 113.188 54.0688 113.188C60.3536 115.988 82.4956 113.622 82.4956 113.622C82.1889 112.821 79.2244 106.613 79.2244 106.613C80.5124 104.389 79.2857 101.177 79.2857 101.177C79.2857 101.177 78.0059 85.9817 77.1881 83.8811C76.3703 81.7804 79.2816 70.3983 81.1953 70.5209C83.1089 70.6435 95.47 64.3415 95.47 64.3415C95.47 64.3415 95.1592 63.847 99.2401 62.1795C101.584 61.259 103.733 59.9043 105.574 58.1866L107.25 54.8394C106.445 55.15 103.726 50.025 103.726 50.025L102.54 50.4768L101.853 50.2784C101.853 50.2784 96.4922 51.8028 95.3964 52.9145C94.3005 54.0261 93.9325 53.7155 92.943 53.9648C91.9534 54.2141 91.8308 54.9089 91.52 54.8312C91.2092 54.7536 90.6572 55.6936 90.2238 55.571C89.7903 55.4484 88.8621 55.9429 88.2447 56.0655C87.6273 56.1881 83.2398 58.0436 83.2398 58.0436C80.5247 56.6704 73.1645 57.2262 73.1645 57.2262C73.1645 57.2262 70.756 55.808 70.0732 57.2262C69.8894 57.6291 69.5944 57.9712 69.2228 58.2123C68.8513 58.4534 68.4185 58.5834 67.9755 58.5871L65.0396 57.3324C64.869 57.9549 61.6666 51.4664 61.6499 52.1116Z" fill="#E1315A"/>
<path d="M47.6329 128.265C47.3123 127.905 47.0745 127.479 46.9363 127.017C46.798 126.556 46.7628 126.069 46.833 125.593C46.9031 125.116 47.077 124.66 47.3424 124.258C47.6078 123.856 47.9582 123.516 48.369 123.264L44.2095 106.921L49.8963 109.099L53.0568 124.532C53.4351 125.25 53.5369 126.081 53.3428 126.869C53.1487 127.657 52.6722 128.346 52.0037 128.806C51.3351 129.266 50.5209 129.465 49.7153 129.365C48.9098 129.266 48.1689 128.874 47.6329 128.265Z" fill="#9E616A"/>
<path d="M39.9781 75.8158L39.4645 82.342C39.4645 82.342 38.8259 89.5118 38.9931 90.8376C39.1603 92.1635 39.4717 100.26 39.4717 100.26L44.8849 110.963L51.0184 109.329L50.6514 104.308L51.0184 108.92L51.8362 104.833L49.7917 97.8852L51.0184 95.433L50.3998 87.2015L39.9781 75.8158Z" fill="#E1315A"/>
<path d="M185.196 60.5631L187.22 60.9968C187.234 60.1502 187.339 59.3076 187.535 58.4839C187.719 59.4927 188.107 60.4533 188.675 61.3072L200.289 63.7861L211.439 52.0252C211.456 46.1447 208.189 41.6759 202.331 41.6759C201.978 41.6759 201.612 41.6929 201.242 41.7269C198.077 41.1975 194.83 41.9161 192.185 43.7315C189.539 45.5468 187.702 48.3173 187.059 51.4597C182.907 55.5458 184.413 57.9481 185.196 60.5631Z" fill="#2F2E41"/>
<path d="M179.486 198.103H175.273L173.269 181.862H179.486L179.486 198.103Z" fill="#FFB6B6"/>
<path d="M181.37 206.098H178.381L177.847 203.277L176.481 206.098H168.553C168.173 206.098 167.802 205.976 167.496 205.751C167.19 205.526 166.964 205.209 166.851 204.846C166.738 204.484 166.744 204.094 166.868 203.735C166.992 203.376 167.227 203.066 167.54 202.85L173.871 198.48V195.628L180.531 196.026L181.37 206.098Z" fill="#2F2E41"/>
<path d="M228.839 193.519L225.175 195.597L215.414 182.46L220.821 179.394L228.839 193.519Z" fill="#FFB6B6"/>
<path d="M234.426 199.544L231.826 201.018L229.969 198.828L230.173 201.955L223.278 205.866C222.947 206.053 222.565 206.13 222.188 206.086C221.811 206.041 221.457 205.877 221.18 205.617C220.903 205.357 220.716 205.016 220.646 204.642C220.577 204.269 220.628 203.883 220.794 203.541L224.142 196.617L222.734 194.137L228.723 191.198L234.426 199.544Z" fill="#2F2E41"/>
<path d="M163.914 63.4084C164.454 63.4864 164.97 63.6818 165.426 63.9808C165.882 64.2798 166.267 64.6751 166.554 65.1389C166.841 65.6026 167.022 66.1236 167.086 66.665C167.149 67.2065 167.093 67.7553 166.921 68.2727L173.368 73.8495L170.932 78.5915L161.94 70.5882C161.089 70.2423 160.395 69.5966 159.989 68.7734C159.583 67.9502 159.493 67.0067 159.736 66.1217C159.98 65.2367 160.539 64.4717 161.309 63.9716C162.079 63.4715 163.006 63.2711 163.914 63.4084Z" fill="#FFB6B6"/>
<path d="M169.486 80.7652L165.175 73.9094L169.969 69.0106L173.374 73.1515L177.591 75.0322L183.38 78.5572C184.531 77.2032 193.4 67.0196 197.357 69.9518C197.832 70.2755 198.232 70.6983 198.528 71.1909C198.824 71.6835 199.01 72.2344 199.073 72.8057C199.352 75.5319 196.908 78.3049 196.815 78.4076L191.587 85.4561C191.425 85.8988 189.695 90.4632 186.996 91.691C186.612 91.8745 186.195 91.9763 185.77 91.9902C185.346 92.0041 184.923 91.9296 184.528 91.7716C177.375 88.9846 172.556 85.8409 170.406 82.5858C170.025 82.0192 169.717 81.4077 169.486 80.7652Z" fill="#2F2E41"/>
<path d="M185.44 95.0745C185.44 95.0745 173.054 114.795 175.298 117.038C177.542 119.281 181.034 119.87 181.034 119.87L188.762 109.86L185.44 95.0745Z" fill="#2F2E41"/>
<path d="M196.392 68.1415L190.554 72.0886C187.841 73.9233 185.8 76.5923 184.741 79.6909C183.682 82.7895 183.664 86.1486 184.687 89.259L186.331 94.252L196.392 68.1415Z" fill="#2F2E41"/>
<path d="M206.715 121.972L207.496 124.689L210.159 157.454L223.464 182.239L217.114 186.773L198.97 163.197L191.794 139.788L180.523 191.609L172.056 191.004L177.936 119.156L189.096 98.9325L206.715 121.972Z" fill="#2F2E41"/>
<path d="M197.385 69.134L189.26 75.771C187.477 77.2276 186.193 79.204 185.587 81.4247C185.311 82.4331 185.181 83.4754 185.198 84.5204L185.44 98.9324L177.991 118.832C177.991 118.832 198.188 126.458 200.88 119.729C203.573 113 197.385 69.134 197.385 69.134Z" fill="#E1315A"/>
<path d="M186.069 113L184.723 107.617L185.052 94.2234C185.078 93.4451 189.228 81.3323 194.459 68.4661L198.959 63.9685L201.385 62.3906L206.725 67.3173C206.725 67.3173 206.046 80.8028 206.266 94.6083C206.327 98.4278 205.655 102.889 205.369 106.272L207.822 117.168V123.234L207.663 123.266C207.503 123.298 205.044 123.222 194.955 123.222C186.595 123.222 192.16 117.298 186.069 113Z" fill="#2F2E41"/>
<path opacity="0.2" d="M204.462 79.3439L205.689 86.9958L197.385 90.4194L204.462 79.3439Z" fill="black"/>
<path d="M196.097 60.9552C200.587 60.9552 204.227 57.3172 204.227 52.8296C204.227 48.3419 200.587 44.704 196.097 44.704C191.607 44.704 187.967 48.3419 187.967 52.8296C187.967 57.3172 191.607 60.9552 196.097 60.9552Z" fill="#FFB6B6"/>
<path opacity="0.2" d="M209.719 94.0579C207.556 96.5619 204.621 98.2764 201.376 98.932C198.131 99.5875 194.761 99.1468 191.794 97.6792L190.024 96.804L209.719 94.0579Z" fill="black"/>
<path d="M181.43 92.1874C181.792 91.7802 182.24 91.4574 182.741 91.2418C183.242 91.0261 183.784 90.9229 184.329 90.9394C184.874 90.9558 185.409 91.0916 185.896 91.337C186.383 91.5825 186.811 91.9316 187.148 92.36L195.356 90.0568L197.973 94.7011L186.336 97.7909C185.578 98.3098 184.657 98.5328 183.746 98.4179C182.835 98.3029 181.997 97.8579 181.393 97.1672C180.788 96.4765 180.458 95.588 180.464 94.6702C180.471 93.7524 180.815 92.869 181.43 92.1874V92.1874Z" fill="#FFB6B6"/>
<path d="M198.991 97.1049L190.892 96.9228L189.443 90.2248L194.777 89.6671L198.671 87.1859L204.804 84.3008C204.308 82.5948 200.693 69.5857 205.322 67.901C205.854 67.6831 206.427 67.583 207.002 67.6075C207.576 67.632 208.139 67.7804 208.65 68.0427C211.081 69.3119 212.049 72.8789 212.083 73.0129L215.087 81.2573C215.367 81.6367 218.224 85.5948 217.762 88.5227C217.704 88.9435 217.559 89.3476 217.336 89.7096C217.114 90.0715 216.819 90.3833 216.469 90.6252C210.201 95.0548 204.92 97.3418 201.018 97.3414C200.335 97.3465 199.654 97.2671 198.991 97.1049Z" fill="#2F2E41"/>
<path d="M186.348 47.4841C186.999 48.3302 189.241 49.0786 191.904 49.6823C191.9 49.6271 191.9 49.5718 191.9 49.5165C191.913 48.6699 192.019 47.8273 192.215 47.0036C192.399 48.0124 192.787 48.973 193.355 49.8269C193.397 49.8907 193.44 49.9545 193.487 50.0183C195.771 50.469 198.188 50.8176 200.081 51.0515C198.779 55.7371 193.789 59.5809 194.329 62.4297L208.951 65.4146C208.861 64.2308 208.955 63.0402 209.231 61.8855C209.511 63.4095 210.25 64.8115 211.35 65.9036L212.592 66.1587L212.962 64.3346C216.17 56.6343 211.699 48.7512 204.373 44.6735C203.067 42.7166 201.039 41.356 198.732 40.8893L196.907 40.5151C195.756 40.2797 194.57 40.2732 193.416 40.4961C192.263 40.7189 191.164 41.1667 190.184 41.8138C189.203 42.4609 188.36 43.2948 187.702 44.2677C187.044 45.2406 186.584 46.3335 186.348 47.4841Z" fill="#2F2E41"/>
<path d="M6.9882 196.209L6.79123 191.782C4.73777 190.685 2.4474 190.105 0.119019 190.094C3.32357 192.712 2.92309 197.76 5.09569 201.281C5.78173 202.375 6.70508 203.299 7.79732 203.987C8.88956 204.675 10.1227 205.109 11.4053 205.256L14.087 206.897C14.455 204.846 14.3739 202.741 13.8492 200.725C13.3246 198.709 12.3689 196.83 11.048 195.219C10.2981 194.322 9.43813 193.524 8.4885 192.842C7.84623 194.535 6.9882 196.209 6.9882 196.209Z" fill="#E1315A"/>
<path d="M151.858 27.8132C152.869 32.2555 153.35 37.2919 150.652 41.2673C149.505 42.9728 147.822 44.2472 145.869 44.889C143.892 45.4749 141.807 45.6029 139.773 45.2633C135.171 44.6259 131.081 42.2299 126.554 41.2996C124.557 40.8891 122.437 40.7534 120.514 41.5435C119.073 42.1355 117.556 43.3256 117.549 45.0234C117.542 46.7668 119.057 47.9239 120.564 48.4599C122.574 49.1752 124.663 48.8983 126.749 48.8082C128.994 48.7111 131.284 48.9141 133.15 50.2888C134.755 51.5406 135.986 53.2082 136.708 55.1102C137.646 57.3851 138.027 59.8308 138.626 62.2042C139.162 64.3381 139.92 66.41 140.888 68.3859C142.788 72.2589 145.45 75.7084 148.716 78.5275C150.327 79.913 152.284 81.3246 154.484 81.4516C156.181 81.5495 158.243 80.8369 158.897 79.1191C159.14 78.3775 159.117 77.5744 158.83 76.8484C158.544 76.1224 158.013 75.5192 157.329 75.1429C155.875 74.4095 154.291 75.4557 153.821 76.8917C153.698 77.2227 153.655 77.5782 153.696 77.929C153.736 78.2798 153.859 78.6161 154.055 78.9103C154.496 79.5674 153.433 80.1818 152.995 79.5291C151.979 78.0136 152.51 75.9753 153.755 74.7613C154.363 74.1423 155.175 73.7653 156.04 73.7009C156.906 73.6364 157.765 73.8889 158.457 74.4111C159.177 74.9588 159.721 75.7045 160.023 76.5568C160.324 77.409 160.371 78.3308 160.156 79.2089C159.633 81.0957 157.778 82.2958 155.925 82.5932C153.638 82.9603 151.436 82.0618 149.59 80.7637C147.737 79.4271 146.053 77.8719 144.573 76.132C141.565 72.6739 139.303 68.6321 137.93 64.2598C136.58 59.9354 136.482 54.2226 132.47 51.3021C130.405 49.7993 127.875 49.966 125.455 50.1039C123.318 50.2257 121.234 50.2036 119.274 49.2367C117.655 48.4384 116.349 46.9649 116.322 45.0875C116.295 43.1923 117.641 41.6684 119.227 40.805C123.418 38.524 128.45 40.3636 132.566 41.8875C136.706 43.42 141.433 45.2187 145.832 43.606C147.863 42.8173 149.498 41.2561 150.378 39.2645C151.444 37.0064 151.595 34.4442 151.349 31.9935C151.204 30.696 150.979 29.4088 150.675 28.1391C150.5 27.3709 151.682 27.0429 151.858 27.8132V27.8132Z" fill="#3F3D56"/>
<path d="M144.339 15.3512C145.552 19.3993 147.38 23.2368 149.761 26.7292C150.35 27.5875 150.968 28.4239 151.617 29.2386C152.121 28.3226 152.732 27.4693 153.437 26.6965C155.911 23.9787 159.227 22.2009 162.445 20.419C165.663 18.6371 168.93 16.7244 171.203 13.835C172.224 12.5343 172.954 11.0308 173.346 9.42519C173.861 7.24686 173.665 4.97453 172.393 3.15585C170.545 0.511613 166.861 -0.420207 163.729 0.344047C160.592 1.1083 157.967 3.28663 155.931 5.78783C156.598 2.71446 153.355 -0.252645 150.219 0.0170922C147.082 0.290916 144.568 3.02915 143.734 6.06165C142.895 9.09005 143.439 12.3351 144.339 15.3512Z" fill="#E1315A"/>
<g opacity="0.2">
<path opacity="0.2" d="M149.761 26.7292C150.35 27.5875 150.968 28.4239 151.617 29.2386C152.121 28.3226 152.732 27.4693 153.437 26.6965C155.911 23.9787 159.227 22.2009 162.445 20.419C165.663 18.6371 168.93 16.7244 171.203 13.835C172.224 12.5343 172.954 11.0308 173.346 9.42517C166.112 10.4276 159.465 13.9522 154.578 19.3768C152.621 21.5791 150.998 24.0562 149.761 26.7292Z" fill="black"/>
</g>
</svg>
