<svg width="24" height="24" viewBox="0 0 24 24" fill="none" xmlns="http://www.w3.org/2000/svg">
<path d="M22.4348 2.08696H20.8696V1.04348C20.8696 0.766731 20.7596 0.501318 20.5639 0.305628C20.3682 0.109938 20.1028 0 19.8261 0H18.7826C18.5059 0 18.2404 0.109938 18.0448 0.305628C17.8491 0.501318 17.7391 0.766731 17.7391 1.04348V2.08696H13.5652V1.04348C13.5652 0.766731 13.4553 0.501318 13.2596 0.305628C13.0639 0.109938 12.7985 0 12.5217 0H11.4783C11.2015 0 10.9361 0.109938 10.7404 0.305628C10.5447 0.501318 10.4348 0.766731 10.4348 1.04348V2.08696H6.26087V1.04348C6.26087 0.766731 6.15093 0.501318 5.95524 0.305628C5.75955 0.109938 5.49414 0 5.21739 0H4.17391C3.89717 0 3.63175 0.109938 3.43606 0.305628C3.24037 0.501318 3.13043 0.766731 3.13043 1.04348V2.08696H1.56522C1.1501 2.08696 0.751977 2.25186 0.458442 2.5454C0.164906 2.83893 0 3.23705 0 3.65217V22.4348C0 22.8499 0.164906 23.248 0.458442 23.5416C0.751977 23.8351 1.1501 24 1.56522 24H22.4348C22.8499 24 23.248 23.8351 23.5416 23.5416C23.8351 23.248 24 22.8499 24 22.4348V3.65217C24 3.23705 23.8351 2.83893 23.5416 2.5454C23.248 2.25186 22.8499 2.08696 22.4348 2.08696ZM18.7826 1.04348H19.8261V4.17391H18.7826V1.04348ZM11.4783 1.04348H12.5217V2.54609C12.5217 2.54609 12.5217 2.54609 12.5217 2.6087C12.5217 2.6713 12.5217 2.6087 12.5217 2.68174V4.17391H11.4783V1.04348ZM4.17391 1.04348H5.21739V4.17391H4.17391V1.04348ZM1.56522 3.13043H3.13043V4.17391C3.13043 4.45066 3.24037 4.71607 3.43606 4.91176C3.63175 5.10745 3.89717 5.21739 4.17391 5.21739H5.21739C5.49414 5.21739 5.75955 5.10745 5.95524 4.91176C6.15093 4.71607 6.26087 4.45066 6.26087 4.17391V3.13043H10.4348V4.17391C10.4348 4.45066 10.5447 4.71607 10.7404 4.91176C10.9361 5.10745 11.2015 5.21739 11.4783 5.21739H12.5217C12.7985 5.21739 13.0639 5.10745 13.2596 4.91176C13.4553 4.71607 13.5652 4.45066 13.5652 4.17391V3.13043H17.7391V4.17391C17.7391 4.45066 17.8491 4.71607 18.0448 4.91176C18.2404 5.10745 18.5059 5.21739 18.7826 5.21739H19.8261C20.1028 5.21739 20.3682 5.10745 20.5639 4.91176C20.7596 4.71607 20.8696 4.45066 20.8696 4.17391V3.13043H22.4348C22.5732 3.13043 22.7059 3.1854 22.8037 3.28325C22.9016 3.38109 22.9565 3.5138 22.9565 3.65217V7.30435H1.04348V3.65217C1.04348 3.5138 1.09845 3.38109 1.19629 3.28325C1.29414 3.1854 1.42684 3.13043 1.56522 3.13043ZM22.4348 22.9565H1.56522C1.42684 22.9565 1.29414 22.9016 1.19629 22.8037C1.09845 22.7059 1.04348 22.5732 1.04348 22.4348V8.34783H22.9565V22.4348C22.9565 22.5732 22.9016 22.7059 22.8037 22.8037C22.7059 22.9016 22.5732 22.9565 22.4348 22.9565Z" fill="#231F20"/>
<g clip-path="url(#clip0_2603_137)">
<path d="M16.1699 16.8874C17.0745 16.0011 17.9911 14.9387 17.9911 13.5486C17.9911 12.6631 17.6394 11.8138 17.0132 11.1876C16.3871 10.5615 15.5378 10.2097 14.6523 10.2097C13.5838 10.2097 12.8311 10.5132 11.9205 11.4238C11.0099 10.5132 10.2571 10.2097 9.18871 10.2097C8.30319 10.2097 7.45394 10.5615 6.82778 11.1876C6.20162 11.8138 5.84985 12.6631 5.84985 13.5486C5.84985 14.9448 6.76045 16.0072 7.67105 16.8874L11.9205 21.1369L16.1699 16.8874Z" fill="#E1315A" stroke="#E1315A" stroke-width="2" stroke-linecap="round" stroke-linejoin="round"/>
</g>
<defs>
<clipPath id="clip0_2603_137">
<rect width="14.5695" height="14.5695" fill="white" transform="translate(4.63574 8.38855)"/>
</clipPath>
</defs>
</svg>
